<svg width="15" height="16" viewBox="0 0 15 16" fill="none" xmlns="http://www.w3.org/2000/svg">
<path d="M4.375 7.25H5.625V8.5H4.375V7.25ZM4.375 9.75H5.625V11H4.375V9.75ZM6.875 7.25H8.125V8.5H6.875V7.25ZM6.875 9.75H8.125V11H6.875V9.75ZM9.375 7.25H10.625V8.5H9.375V7.25ZM9.375 9.75H10.625V11H9.375V9.75Z" fill="black"/>
<path d="M3.125 14.125H11.875C12.5644 14.125 13.125 13.5644 13.125 12.875V4.125C13.125 3.43562 12.5644 2.875 11.875 2.875H10.625V1.625H9.375V2.875H5.625V1.625H4.375V2.875H3.125C2.43562 2.875 1.875 3.43562 1.875 4.125V12.875C1.875 13.5644 2.43562 14.125 3.125 14.125ZM11.875 5.375L11.8756 12.875H3.125V5.375H11.875Z" fill="black"/>
</svg>
