<svg width="15" height="16" viewBox="0 0 15 16" fill="none" xmlns="http://www.w3.org/2000/svg">
<g clip-path="url(#clip0_79_1185)">
<path d="M3.28458 2.02163L2.34038 0.997587C0.133911 3.35792 0.133911 5.0685 0.133911 7.27884H0.803554L1.4732 7.2334C1.4732 5.12187 1.4732 3.95864 3.28458 2.02163ZM12.6589 0.997587L11.7161 2.02163C13.5268 3.95864 13.5268 5.12187 13.5268 7.27884L14.8661 7.2334C14.8661 5.0685 14.8661 3.35792 12.6589 0.997587ZM7.49998 15.2115C7.91469 15.2121 8.31926 15.0735 8.65745 14.815C8.99565 14.5565 9.25066 14.191 9.38704 13.7692H5.61293C5.74931 14.191 6.00432 14.5565 6.34251 14.815C6.6807 15.0735 7.08527 15.2121 7.49998 15.2115ZM12.1875 9.86489V6.55768C12.1875 4.23773 10.7243 2.2834 8.74217 1.69566C8.54596 1.16345 8.0665 0.788452 7.49998 0.788452C6.93347 0.788452 6.454 1.16345 6.2578 1.69566C4.27498 2.2834 2.81248 4.23773 2.81248 6.55768V9.86489L1.6694 11.0959C1.6071 11.1628 1.55769 11.2422 1.52401 11.3297C1.49034 11.4172 1.47307 11.511 1.4732 11.6058V12.3269C1.4732 12.5182 1.54375 12.7016 1.66933 12.8368C1.79491 12.9721 1.96524 13.0481 2.14284 13.0481H12.8571C13.0347 13.0481 13.2051 12.9721 13.3306 12.8368C13.4562 12.7016 13.5268 12.5182 13.5268 12.3269V11.6058C13.5269 11.511 13.5096 11.4172 13.476 11.3297C13.4423 11.2422 13.3929 11.1628 13.3306 11.0959L12.1875 9.86489Z" fill="black"/>
</g>
<defs>
<clipPath id="clip0_79_1185">
<rect width="15" height="15" fill="white" transform="translate(0 0.5)"/>
</clipPath>
</defs>
</svg>
