<svg width="270" height="46" viewBox="0 0 270 46" fill="none" xmlns="http://www.w3.org/2000/svg">
<path d="M30 4.25H15C8.79566 4.25 3.75003 9.29562 3.75003 15.5V38C3.75003 38.4973 3.94757 38.9742 4.29921 39.3258C4.65084 39.6775 5.12775 39.875 5.62503 39.875H30C36.2044 39.875 41.25 34.8294 41.25 28.625V15.5C41.25 9.29562 36.2044 4.25 30 4.25ZM37.5 28.625C37.5 32.7613 34.1363 36.125 30 36.125H7.50003V15.5C7.50003 11.3637 10.8638 8 15 8H30C34.1363 8 37.5 11.3637 37.5 15.5V28.625Z" fill="#FFFFDD"/>
<path d="M17.8125 24.875C19.3658 24.875 20.625 23.6158 20.625 22.0625C20.625 20.5092 19.3658 19.25 17.8125 19.25C16.2592 19.25 15 20.5092 15 22.0625C15 23.6158 16.2592 24.875 17.8125 24.875Z" fill="#FFFFDD"/>
<path d="M27.1875 24.875C28.7408 24.875 30 23.6158 30 22.0625C30 20.5092 28.7408 19.25 27.1875 19.25C25.6342 19.25 24.375 20.5092 24.375 22.0625C24.375 23.6158 25.6342 24.875 27.1875 24.875Z" fill="#FFFFDD"/>
<path d="M88.125 21.125H91.875V24.875H88.125V21.125ZM88.125 28.625H91.875V32.375H88.125V28.625ZM95.625 21.125H99.375V24.875H95.625V21.125ZM95.625 28.625H99.375V32.375H95.625V28.625ZM103.125 21.125H106.875V24.875H103.125V21.125ZM103.125 28.625H106.875V32.375H103.125V28.625Z" fill="#FFFFDD"/>
<path d="M84.375 41.75H110.625C112.693 41.75 114.375 40.0681 114.375 38V11.75C114.375 9.68187 112.693 8 110.625 8H106.875V4.25H103.125V8H91.875V4.25H88.125V8H84.375C82.3069 8 80.625 9.68187 80.625 11.75V38C80.625 40.0681 82.3069 41.75 84.375 41.75ZM110.625 15.5L110.627 38H84.375V15.5H110.625Z" fill="#FFFFDD"/>
<path d="M185.625 25.9738V19.25C185.625 13.2181 181.528 8.13687 175.978 6.60875C175.429 5.225 174.086 4.25 172.5 4.25C170.914 4.25 169.571 5.225 169.022 6.60875C163.472 8.13875 159.375 13.2181 159.375 19.25V25.9738L156.174 29.1744C156 29.3482 155.862 29.5548 155.767 29.7823C155.673 30.0098 155.625 30.2537 155.625 30.5V34.25C155.625 34.7473 155.823 35.2242 156.174 35.5758C156.526 35.9275 157.003 36.125 157.5 36.125H187.5C187.997 36.125 188.474 35.9275 188.826 35.5758C189.177 35.2242 189.375 34.7473 189.375 34.25V30.5C189.375 30.2537 189.327 30.0098 189.233 29.7823C189.138 29.5548 189 29.3482 188.826 29.1744L185.625 25.9738ZM185.625 32.375H159.375V31.2762L162.576 28.0756C162.75 27.9018 162.888 27.6952 162.983 27.4677C163.077 27.2402 163.125 26.9963 163.125 26.75V19.25C163.125 14.0806 167.331 9.875 172.5 9.875C177.669 9.875 181.875 14.0806 181.875 19.25V26.75C181.875 27.2488 182.072 27.725 182.424 28.0756L185.625 31.2762V32.375ZM172.5 41.75C173.661 41.7515 174.794 41.3911 175.741 40.7191C176.688 40.047 177.402 39.0966 177.784 38H167.216C167.598 39.0966 168.312 40.047 169.259 40.7191C170.206 41.3911 171.339 41.7515 172.5 41.75Z" fill="#FFFFDD"/>
<path d="M247.5 4.25C242.547 4.31317 237.814 6.30889 234.312 9.8116C230.809 13.3143 228.813 18.0468 228.75 23C228.773 25.8855 229.462 28.7267 230.763 31.3024C232.064 33.8781 233.941 36.1188 236.25 37.85V38H236.437C239.612 40.4328 243.5 41.7512 247.5 41.7512C251.5 41.7512 255.388 40.4328 258.562 38H258.75V37.85C261.059 36.1188 262.936 33.8781 264.237 31.3024C265.538 28.7267 266.227 25.8855 266.25 23C266.187 18.0468 264.191 13.3143 260.688 9.8116C257.186 6.30889 252.453 4.31317 247.5 4.25ZM240.131 35.9937C240.405 34.7402 241.099 33.6179 242.098 32.8131C243.098 32.0082 244.342 31.5691 245.625 31.5687H249.375C250.658 31.5691 251.902 32.0082 252.902 32.8131C253.901 33.6179 254.595 34.7402 254.869 35.9937C252.635 37.3078 250.091 38.0007 247.5 38.0007C244.909 38.0007 242.365 37.3078 240.131 35.9937ZM258.019 33.575C257.306 31.8705 256.105 30.4148 254.567 29.3907C253.029 28.3665 251.223 27.8197 249.375 27.8187H245.625C243.777 27.8197 241.971 28.3665 240.433 29.3907C238.895 30.4148 237.694 31.8705 236.981 33.575C235.576 32.1931 234.457 30.5479 233.688 28.7334C232.919 26.9189 232.516 24.9706 232.5 23C232.549 19.0369 234.145 15.2497 236.947 12.4472C239.75 9.6446 243.537 8.04863 247.5 8C251.463 8.04863 255.25 9.6446 258.053 12.4472C260.855 15.2497 262.451 19.0369 262.5 23C262.484 24.9706 262.081 26.9189 261.312 28.7334C260.543 30.5479 259.424 32.1931 258.019 33.575Z" fill="#FFFFDD"/>
<path d="M247.5 11.7499C246.509 11.7268 245.523 11.905 244.603 12.2738C243.682 12.6425 242.846 13.1941 242.145 13.8952C241.444 14.5963 240.893 15.4323 240.524 16.3527C240.155 17.2731 239.977 18.2587 240 19.2499C239.977 20.2411 240.155 21.2268 240.524 22.1471C240.893 23.0675 241.444 23.9035 242.145 24.6046C242.846 25.3057 243.682 25.8573 244.603 26.2261C245.523 26.5948 246.509 26.773 247.5 26.7499C248.491 26.773 249.477 26.5948 250.397 26.2261C251.318 25.8573 252.154 25.3057 252.855 24.6046C253.556 23.9035 254.107 23.0675 254.476 22.1471C254.845 21.2268 255.023 20.2411 255 19.2499C255.023 18.2587 254.845 17.2731 254.476 16.3527C254.107 15.4323 253.556 14.5963 252.855 13.8952C252.154 13.1941 251.318 12.6425 250.397 12.2738C249.477 11.905 248.491 11.7268 247.5 11.7499ZM247.5 22.9999C247.001 23.024 246.503 22.9435 246.037 22.7636C245.571 22.5837 245.148 22.3083 244.795 21.9552C244.442 21.602 244.166 21.1789 243.986 20.713C243.806 20.2471 243.726 19.7488 243.75 19.2499C243.726 18.7511 243.806 18.2527 243.986 17.7868C244.166 17.3209 244.442 16.8978 244.795 16.5447C245.148 16.1915 245.571 15.9161 246.037 15.7362C246.503 15.5563 247.001 15.4758 247.5 15.4999C247.999 15.4758 248.497 15.5563 248.963 15.7362C249.429 15.9161 249.852 16.1915 250.205 16.5447C250.558 16.8978 250.834 17.3209 251.014 17.7868C251.194 18.2527 251.274 18.7511 251.25 19.2499C251.274 19.7488 251.194 20.2471 251.014 20.713C250.834 21.1789 250.558 21.602 250.205 21.9552C249.852 22.3083 249.429 22.5837 248.963 22.7636C248.497 22.9435 247.999 23.024 247.5 22.9999Z" fill="#FFFFDD"/>
</svg>
