<svg width="45" height="46" viewBox="0 0 45 46" fill="none" xmlns="http://www.w3.org/2000/svg">
<path d="M35.625 25.9738V19.25C35.625 13.2181 31.5281 8.13687 25.9781 6.60875C25.4288 5.225 24.0863 4.25 22.5 4.25C20.9138 4.25 19.5713 5.225 19.0219 6.60875C13.4719 8.13875 9.375 13.2181 9.375 19.25V25.9738L6.17438 29.1744C5.99992 29.3482 5.86157 29.5548 5.76729 29.7823C5.673 30.0098 5.62464 30.2537 5.625 30.5V34.25C5.625 34.7473 5.82255 35.2242 6.17418 35.5758C6.52581 35.9275 7.00272 36.125 7.5 36.125H37.5C37.9973 36.125 38.4742 35.9275 38.8258 35.5758C39.1775 35.2242 39.375 34.7473 39.375 34.25V30.5C39.3754 30.2537 39.327 30.0098 39.2327 29.7823C39.1384 29.5548 39.0001 29.3482 38.8256 29.1744L35.625 25.9738ZM35.625 32.375H9.375V31.2762L12.5756 28.0756C12.7501 27.9018 12.8884 27.6952 12.9827 27.4677C13.077 27.2402 13.1254 26.9963 13.125 26.75V19.25C13.125 14.0806 17.3306 9.875 22.5 9.875C27.6694 9.875 31.875 14.0806 31.875 19.25V26.75C31.875 27.2488 32.0719 27.725 32.4244 28.0756L35.625 31.2762V32.375ZM22.5 41.75C23.6612 41.7515 24.794 41.3911 25.7409 40.7191C26.6879 40.047 27.4019 39.0966 27.7838 38H17.2163C17.5981 39.0966 18.3121 40.047 19.2591 40.7191C20.206 41.3911 21.3388 41.7515 22.5 41.75Z" fill="#FFFFDD"/>
</svg>
