<svg width="23" height="22" viewBox="0 0 23 22" fill="none" xmlns="http://www.w3.org/2000/svg">
<path d="M6.5625 9.9126H8.4375V11.7876H6.5625V9.9126ZM6.5625 13.6626H8.4375V15.5376H6.5625V13.6626ZM10.3125 9.9126H12.1875V11.7876H10.3125V9.9126ZM10.3125 13.6626H12.1875V15.5376H10.3125V13.6626ZM14.0625 9.9126H15.9375V11.7876H14.0625V9.9126ZM14.0625 13.6626H15.9375V15.5376H14.0625V13.6626Z" fill="black"/>
<path d="M4.6875 20.2251H17.8125C18.8466 20.2251 19.6875 19.3842 19.6875 18.3501V5.2251C19.6875 4.19104 18.8466 3.3501 17.8125 3.3501H15.9375V1.4751H14.0625V3.3501H8.4375V1.4751H6.5625V3.3501H4.6875C3.65344 3.3501 2.8125 4.19104 2.8125 5.2251V18.3501C2.8125 19.3842 3.65344 20.2251 4.6875 20.2251ZM17.8125 7.1001L17.8134 18.3501H4.6875V7.1001H17.8125Z" fill="black"/>
</svg>
