<svg width="23" height="23" viewBox="0 0 23 23" fill="none" xmlns="http://www.w3.org/2000/svg">
<path d="M7.77539 15.2749L9.10102 16.6005L11.2507 14.4508L13.4004 16.6005L14.726 15.2749L12.5763 13.1252L14.726 10.9755L13.4004 9.6499L11.2507 11.7996L9.10102 9.6499L7.77539 10.9755L9.92508 13.1252L7.77539 15.2749Z" fill="black"/>
<path d="M17.8125 3.75H15.9375V1.875H14.0625V3.75H8.4375V1.875H6.5625V3.75H4.6875C3.65344 3.75 2.8125 4.59094 2.8125 5.625V18.75C2.8125 19.7841 3.65344 20.625 4.6875 20.625H17.8125C18.8466 20.625 19.6875 19.7841 19.6875 18.75V5.625C19.6875 4.59094 18.8466 3.75 17.8125 3.75ZM17.8144 18.75H4.6875V7.5H17.8125L17.8144 18.75Z" fill="black"/>
</svg>
