<svg width="10" height="10" viewBox="0 0 10 10" fill="none" xmlns="http://www.w3.org/2000/svg">
<path d="M4.16665 7.50004C4.90622 7.49989 5.62448 7.2523 6.20706 6.79671L8.03873 8.62837L8.6279 8.03921L6.79623 6.20754C7.25206 5.6249 7.4998 4.90647 7.49998 4.16671C7.49998 2.32879 6.00456 0.833374 4.16665 0.833374C2.32873 0.833374 0.833313 2.32879 0.833313 4.16671C0.833313 6.00462 2.32873 7.50004 4.16665 7.50004ZM4.16665 1.66671C5.5454 1.66671 6.66665 2.78796 6.66665 4.16671C6.66665 5.54546 5.5454 6.66671 4.16665 6.66671C2.7879 6.66671 1.66665 5.54546 1.66665 4.16671C1.66665 2.78796 2.7879 1.66671 4.16665 1.66671Z" fill="black"/>
</svg>
