<svg width="16" height="16" viewBox="0 0 16 16" fill="none" xmlns="http://www.w3.org/2000/svg">
<path d="M6.75 11.7498C7.85936 11.7495 8.93675 11.3782 9.81063 10.6948L12.5581 13.4423L13.4419 12.5585L10.6944 9.81101C11.3781 8.93705 11.7497 7.8594 11.75 6.74976C11.75 3.99288 9.50687 1.74976 6.75 1.74976C3.99313 1.74976 1.75 3.99288 1.75 6.74976C1.75 9.50663 3.99313 11.7498 6.75 11.7498ZM6.75 2.99976C8.81813 2.99976 10.5 4.68163 10.5 6.74976C10.5 8.81788 8.81813 10.4998 6.75 10.4998C4.68187 10.4998 3 8.81788 3 6.74976C3 4.68163 4.68187 2.99976 6.75 2.99976Z" fill="black"/>
</svg>
