<svg width="16" height="16" viewBox="0 0 16 16" fill="none" xmlns="http://www.w3.org/2000/svg">
<path d="M6.75 11.7501C7.85936 11.7499 8.93675 11.3785 9.81063 10.6951L12.5581 13.4426L13.4419 12.5589L10.6944 9.81137C11.3781 8.93741 11.7497 7.85977 11.75 6.75012C11.75 3.99325 9.50687 1.75012 6.75 1.75012C3.99313 1.75012 1.75 3.99325 1.75 6.75012C1.75 9.507 3.99313 11.7501 6.75 11.7501ZM6.75 3.00012C8.81813 3.00012 10.5 4.682 10.5 6.75012C10.5 8.81825 8.81813 10.5001 6.75 10.5001C4.68187 10.5001 3 8.81825 3 6.75012C3 4.682 4.68187 3.00012 6.75 3.00012Z" fill="black"/>
</svg>
