<svg width="15" height="15" viewBox="0 0 15 15" fill="none" xmlns="http://www.w3.org/2000/svg">
<path d="M5.18311 10.1831L6.06686 11.0669L7.49998 9.63373L8.93311 11.0669L9.81686 10.1831L8.38373 8.74998L9.81686 7.31686L8.93311 6.43311L7.49998 7.86623L6.06686 6.43311L5.18311 7.31686L6.61623 8.74998L5.18311 10.1831Z" fill="black"/>
<path d="M11.875 2.5H10.625V1.25H9.375V2.5H5.625V1.25H4.375V2.5H3.125C2.43562 2.5 1.875 3.06062 1.875 3.75V12.5C1.875 13.1894 2.43562 13.75 3.125 13.75H11.875C12.5644 13.75 13.125 13.1894 13.125 12.5V3.75C13.125 3.06062 12.5644 2.5 11.875 2.5ZM11.8763 12.5H3.125V5H11.875L11.8763 12.5Z" fill="black"/>
</svg>
