<svg width="30" height="30" viewBox="0 0 30 30" fill="none" xmlns="http://www.w3.org/2000/svg">
<g clip-path="url(#clip0_379_3251)">
<path d="M6.56919 3.04325L4.6808 0.995173C0.267853 5.71585 0.267853 9.137 0.267853 13.5577H1.60714L2.94642 13.4668C2.94642 9.24373 2.94642 6.91729 6.56919 3.04325ZM25.3179 0.995173L23.4321 3.04325C27.0536 6.91729 27.0536 9.24373 27.0536 13.5577L29.7321 13.4668C29.7321 9.137 29.7321 5.71585 25.3179 0.995173ZM15 29.4231C15.8294 29.4242 16.6386 29.147 17.3149 28.63C17.9913 28.113 18.5013 27.382 18.7741 26.5384H11.2259C11.4987 27.382 12.0087 28.113 12.6851 28.63C13.3614 29.147 14.1706 29.4242 15 29.4231ZM24.375 18.7298V12.1154C24.375 7.47546 21.4487 3.56681 17.4844 2.39133C17.092 1.3269 16.133 0.576904 15 0.576904C13.867 0.576904 12.908 1.3269 12.5156 2.39133C8.55 3.56681 5.625 7.47546 5.625 12.1154V18.7298L3.33883 21.1918C3.21422 21.3255 3.1154 21.4844 3.04806 21.6595C2.98071 21.8345 2.94617 22.0221 2.94642 22.2115V23.6538C2.94642 24.0363 3.08753 24.4032 3.33869 24.6737C3.58986 24.9442 3.93051 25.0961 4.28571 25.0961H25.7143C26.0695 25.0961 26.4101 24.9442 26.6613 24.6737C26.9125 24.4032 27.0536 24.0363 27.0536 23.6538V22.2115C27.0538 22.0221 27.0193 21.8345 26.9519 21.6595C26.8846 21.4844 26.7858 21.3255 26.6612 21.1918L24.375 18.7298Z" fill="black"/>
</g>
<defs>
<clipPath id="clip0_379_3251">
<rect width="30" height="30" fill="white"/>
</clipPath>
</defs>
</svg>
