<svg width="23" height="24" viewBox="0 0 23 24" fill="none" xmlns="http://www.w3.org/2000/svg">
<path d="M17.8125 4.4502H15.9375V2.5752H14.0625V4.4502H8.4375V2.5752H6.5625V4.4502H4.6875C3.65344 4.4502 2.8125 5.29113 2.8125 6.3252V19.4502C2.8125 20.4843 3.65344 21.3252 4.6875 21.3252H17.8125C18.8466 21.3252 19.6875 20.4843 19.6875 19.4502V6.3252C19.6875 5.29113 18.8466 4.4502 17.8125 4.4502ZM17.8144 19.4502H4.6875V8.2002H17.8125L17.8144 19.4502Z" fill="black"/>
<path d="M10.3132 17.026L15.6635 11.6757L14.3379 10.3501L10.3132 14.3748L8.16352 12.2251L6.83789 13.5507L10.3132 17.026Z" fill="black"/>
</svg>
