<svg width="45" height="46" viewBox="0 0 45 46" fill="none" xmlns="http://www.w3.org/2000/svg">
<path d="M22.5 4.25C17.5468 4.31317 12.8143 6.30889 9.3116 9.8116C5.80889 13.3143 3.81317 18.0468 3.75 23C3.77315 25.8855 4.46198 28.7267 5.76283 31.3024C7.06369 33.8781 8.94148 36.1188 11.25 37.85V38H11.4375C14.6122 40.4328 18.5003 41.7512 22.5 41.7512C26.4997 41.7512 30.3878 40.4328 33.5625 38H33.75V37.85C36.0585 36.1188 37.9363 33.8781 39.2372 31.3024C40.538 28.7267 41.2268 25.8855 41.25 23C41.1868 18.0468 39.1911 13.3143 35.6884 9.8116C32.1857 6.30889 27.4532 4.31317 22.5 4.25ZM15.1312 35.9937C15.405 34.7402 16.099 33.6179 17.0983 32.8131C18.0975 32.0082 19.3419 31.5691 20.625 31.5687H24.375C25.6581 31.5691 26.9025 32.0082 27.9017 32.8131C28.901 33.6179 29.595 34.7402 29.8688 35.9937C27.6354 37.3078 25.0913 38.0007 22.5 38.0007C19.9087 38.0007 17.3646 37.3078 15.1312 35.9937ZM33.0188 33.575C32.3056 31.8705 31.1046 30.4148 29.5667 29.3907C28.0289 28.3665 26.2227 27.8197 24.375 27.8187H20.625C18.7773 27.8197 16.9711 28.3665 15.4333 29.3907C13.8954 30.4148 12.6944 31.8705 11.9812 33.575C10.5762 32.1931 9.45731 30.5479 8.6884 28.7334C7.91949 26.9189 7.51566 24.9706 7.5 23C7.54863 19.0369 9.1446 15.2497 11.9472 12.4472C14.7497 9.6446 18.5369 8.04863 22.5 8C26.4631 8.04863 30.2503 9.6446 33.0528 12.4472C35.8554 15.2497 37.4514 19.0369 37.5 23C37.4843 24.9706 37.0805 26.9189 36.3116 28.7334C35.5427 30.5479 34.4238 32.1931 33.0188 33.575Z" fill="#FFFFDD"/>
<path d="M22.501 11.7499C21.5098 11.7268 20.5242 11.905 19.6038 12.2738C18.6834 12.6425 17.8474 13.1941 17.1463 13.8952C16.4452 14.5963 15.8936 15.4323 15.5249 16.3527C15.1561 17.2731 14.9779 18.2587 15.001 19.2499C14.9779 20.2411 15.1561 21.2268 15.5249 22.1471C15.8936 23.0675 16.4452 23.9035 17.1463 24.6046C17.8474 25.3057 18.6834 25.8573 19.6038 26.2261C20.5242 26.5948 21.5098 26.773 22.501 26.7499C23.4922 26.773 24.4779 26.5948 25.3982 26.2261C26.3186 25.8573 27.1546 25.3057 27.8557 24.6046C28.5568 23.9035 29.1084 23.0675 29.4772 22.1471C29.8459 21.2268 30.0241 20.2411 30.001 19.2499C30.0241 18.2587 29.8459 17.2731 29.4772 16.3527C29.1084 15.4323 28.5568 14.5963 27.8557 13.8952C27.1546 13.1941 26.3186 12.6425 25.3982 12.2738C24.4779 11.905 23.4922 11.7268 22.501 11.7499ZM22.501 22.9999C22.0022 23.024 21.5038 22.9435 21.0379 22.7636C20.572 22.5837 20.1489 22.3083 19.7958 21.9552C19.4426 21.602 19.1672 21.1789 18.9873 20.713C18.8074 20.2471 18.7269 19.7488 18.751 19.2499C18.7269 18.7511 18.8074 18.2527 18.9873 17.7868C19.1672 17.3209 19.4426 16.8978 19.7958 16.5447C20.1489 16.1915 20.572 15.9161 21.0379 15.7362C21.5038 15.5563 22.0022 15.4758 22.501 15.4999C22.9999 15.4758 23.4982 15.5563 23.9641 15.7362C24.43 15.9161 24.8531 16.1915 25.2063 16.5447C25.5594 16.8978 25.8348 17.3209 26.0147 17.7868C26.1946 18.2527 26.2751 18.7511 26.251 19.2499C26.2751 19.7488 26.1946 20.2471 26.0147 20.713C25.8348 21.1789 25.5594 21.602 25.2063 21.9552C24.8531 22.3083 24.43 22.5837 23.9641 22.7636C23.4982 22.9435 22.9999 23.024 22.501 22.9999Z" fill="#FFFFDD"/>
</svg>
