<svg width="45" height="46" viewBox="0 0 45 46" fill="none" xmlns="http://www.w3.org/2000/svg">
<path d="M22.5 4.25C17.5468 4.31317 12.8143 6.30889 9.3116 9.8116C5.80889 13.3143 3.81317 18.0468 3.75 23C3.77315 25.8855 4.46198 28.7267 5.76283 31.3024C7.06369 33.8781 8.94148 36.1188 11.25 37.85V38H11.4375C14.6122 40.4328 18.5003 41.7512 22.5 41.7512C26.4997 41.7512 30.3878 40.4328 33.5625 38H33.75V37.85C36.0585 36.1188 37.9363 33.8781 39.2372 31.3024C40.538 28.7267 41.2268 25.8855 41.25 23C41.1868 18.0468 39.1911 13.3143 35.6884 9.8116C32.1857 6.30889 27.4532 4.31317 22.5 4.25ZM15.1312 35.9937C15.405 34.7402 16.099 33.6179 17.0983 32.8131C18.0975 32.0082 19.3419 31.5691 20.625 31.5687H24.375C25.6581 31.5691 26.9025 32.0082 27.9017 32.8131C28.901 33.6179 29.595 34.7402 29.8688 35.9937C27.6354 37.3078 25.0913 38.0007 22.5 38.0007C19.9087 38.0007 17.3646 37.3078 15.1312 35.9937ZM33.0188 33.575C32.3056 31.8705 31.1046 30.4148 29.5667 29.3907C28.0289 28.3665 26.2227 27.8197 24.375 27.8187H20.625C18.7773 27.8197 16.9711 28.3665 15.4333 29.3907C13.8954 30.4148 12.6944 31.8705 11.9812 33.575C10.5762 32.1931 9.45731 30.5479 8.6884 28.7334C7.91949 26.9189 7.51566 24.9706 7.5 23C7.54863 19.0369 9.1446 15.2497 11.9472 12.4472C14.7497 9.6446 18.5369 8.04863 22.5 8C26.4631 8.04863 30.2503 9.6446 33.0528 12.4472C35.8554 15.2497 37.4514 19.0369 37.5 23C37.4843 24.9706 37.0805 26.9189 36.3116 28.7334C35.5427 30.5479 34.4238 32.1931 33.0188 33.575Z" fill="#FFFFDD"/>
<path d="M22.501 11.75C21.5098 11.7269 20.5242 11.9052 19.6038 12.2739C18.6834 12.6426 17.8474 13.1942 17.1463 13.8953C16.4452 14.5964 15.8936 15.4324 15.5249 16.3528C15.1561 17.2732 14.9779 18.2588 15.001 19.25C14.9779 20.2413 15.1561 21.2269 15.5249 22.1473C15.8936 23.0676 16.4452 23.9037 17.1463 24.6048C17.8474 25.3058 18.6834 25.8574 19.6038 26.2262C20.5242 26.5949 21.5098 26.7731 22.501 26.75C23.4922 26.7731 24.4779 26.5949 25.3982 26.2262C26.3186 25.8574 27.1546 25.3058 27.8557 24.6048C28.5568 23.9037 29.1084 23.0676 29.4772 22.1473C29.8459 21.2269 30.0241 20.2413 30.001 19.25C30.0241 18.2588 29.8459 17.2732 29.4772 16.3528C29.1084 15.4324 28.5568 14.5964 27.8557 13.8953C27.1546 13.1942 26.3186 12.6426 25.3982 12.2739C24.4779 11.9052 23.4922 11.7269 22.501 11.75ZM22.501 23C22.0022 23.0242 21.5038 22.9437 21.0379 22.7637C20.572 22.5838 20.1489 22.3084 19.7958 21.9553C19.4426 21.6021 19.1672 21.179 18.9873 20.7131C18.8074 20.2473 18.7269 19.7489 18.751 19.25C18.7269 18.7512 18.8074 18.2528 18.9873 17.7869C19.1672 17.321 19.4426 16.8979 19.7958 16.5448C20.1489 16.1916 20.572 15.9163 21.0379 15.7363C21.5038 15.5564 22.0022 15.4759 22.501 15.5C22.9999 15.4759 23.4982 15.5564 23.9641 15.7363C24.43 15.9163 24.8531 16.1916 25.2063 16.5448C25.5594 16.8979 25.8348 17.321 26.0147 17.7869C26.1946 18.2528 26.2751 18.7512 26.251 19.25C26.2751 19.7489 26.1946 20.2473 26.0147 20.7131C25.8348 21.179 25.5594 21.6021 25.2063 21.9553C24.8531 22.3084 24.43 22.5838 23.9641 22.7637C23.4982 22.9437 22.9999 23.0242 22.501 23Z" fill="#FFFFDD"/>
</svg>
