<svg width="23" height="23" viewBox="0 0 23 23" fill="none" xmlns="http://www.w3.org/2000/svg">
<path d="M17.8125 4.1499H15V2.2749H13.125V4.1499H9.375V2.2749H7.5V4.1499H4.6875C3.65344 4.1499 2.8125 4.99084 2.8125 6.0249V19.1499C2.8125 20.184 3.65344 21.0249 4.6875 21.0249H17.8125C18.8466 21.0249 19.6875 20.184 19.6875 19.1499V6.0249C19.6875 4.99084 18.8466 4.1499 17.8125 4.1499ZM4.6875 19.1499V6.9624H17.8125V6.0249L17.8144 19.1499H4.6875Z" fill="black"/>
<path d="M14.6505 11.8215L12.963 10.1349L14.2473 8.84961L15.9348 10.5362L14.6505 11.8215ZM7.50391 15.5884V17.2749H9.19047L13.8555 12.6155L12.1689 10.929L7.50391 15.5884Z" fill="black"/>
</svg>
