<svg width="45" height="46" viewBox="0 0 45 46" fill="none" xmlns="http://www.w3.org/2000/svg">
<path d="M13.125 21.125H16.875V24.875H13.125V21.125ZM13.125 28.625H16.875V32.375H13.125V28.625ZM20.625 21.125H24.375V24.875H20.625V21.125ZM20.625 28.625H24.375V32.375H20.625V28.625ZM28.125 21.125H31.875V24.875H28.125V21.125ZM28.125 28.625H31.875V32.375H28.125V28.625Z" fill="#FFFFDD"/>
<path d="M9.375 41.75H35.625C37.6931 41.75 39.375 40.0681 39.375 38V11.75C39.375 9.68187 37.6931 8 35.625 8H31.875V4.25H28.125V8H16.875V4.25H13.125V8H9.375C7.30687 8 5.625 9.68187 5.625 11.75V38C5.625 40.0681 7.30687 41.75 9.375 41.75ZM35.625 15.5L35.6269 38H9.375V15.5H35.625Z" fill="#FFFFDD"/>
</svg>
