<svg width="130" height="30" viewBox="0 0 130 30" fill="none" xmlns="http://www.w3.org/2000/svg">
<path d="M20 2.5H10C5.86375 2.5 2.5 5.86375 2.5 10V25C2.5 25.3315 2.6317 25.6495 2.86612 25.8839C3.10054 26.1183 3.41848 26.25 3.75 26.25H20C24.1362 26.25 27.5 22.8862 27.5 18.75V10C27.5 5.86375 24.1362 2.5 20 2.5ZM25 18.75C25 21.5075 22.7575 23.75 20 23.75H5V10C5 7.2425 7.2425 5 10 5H20C22.7575 5 25 7.2425 25 10V18.75Z" fill="#FFFFDD"/>
<path d="M11.875 16.25C12.9105 16.25 13.75 15.4105 13.75 14.375C13.75 13.3395 12.9105 12.5 11.875 12.5C10.8395 12.5 10 13.3395 10 14.375C10 15.4105 10.8395 16.25 11.875 16.25Z" fill="#FFFFDD"/>
<path d="M18.125 16.25C19.1605 16.25 20 15.4105 20 14.375C20 13.3395 19.1605 12.5 18.125 12.5C17.0895 12.5 16.25 13.3395 16.25 14.375C16.25 15.4105 17.0895 16.25 18.125 16.25Z" fill="#FFFFDD"/>
<path d="M73.75 16.9825V12.5C73.75 8.47875 71.0188 5.09125 67.3188 4.0725C66.9525 3.15 66.0575 2.5 65 2.5C63.9425 2.5 63.0475 3.15 62.6813 4.0725C58.9813 5.0925 56.25 8.47875 56.25 12.5V16.9825L54.1163 19.1163C53.9999 19.2321 53.9077 19.3699 53.8449 19.5215C53.782 19.6732 53.7498 19.8358 53.75 20V22.5C53.75 22.8315 53.8817 23.1495 54.1161 23.3839C54.3505 23.6183 54.6685 23.75 55 23.75H75C75.3315 23.75 75.6495 23.6183 75.8839 23.3839C76.1183 23.1495 76.25 22.8315 76.25 22.5V20C76.2502 19.8358 76.218 19.6732 76.1551 19.5215C76.0923 19.3699 76.0001 19.2321 75.8838 19.1163L73.75 16.9825ZM73.75 21.25H56.25V20.5175L58.3838 18.3837C58.5001 18.2679 58.5923 18.1301 58.6551 17.9785C58.718 17.8268 58.7502 17.6642 58.75 17.5V12.5C58.75 9.05375 61.5538 6.25 65 6.25C68.4463 6.25 71.25 9.05375 71.25 12.5V17.5C71.25 17.8325 71.3813 18.15 71.6163 18.3837L73.75 20.5175V21.25ZM65 27.5C65.7741 27.501 66.5293 27.2607 67.1606 26.8127C67.7919 26.3647 68.2679 25.7311 68.5225 25H61.4775C61.7321 25.7311 62.2081 26.3647 62.8394 26.8127C63.4707 27.2607 64.2259 27.501 65 27.5Z" fill="#FFFFDD"/>
<path d="M116.25 20L122.5 15L116.25 10V13.75H105V16.25H116.25V20Z" fill="#FFFFDD"/>
<path d="M125 3.75H113.75C112.371 3.75 111.25 4.87125 111.25 6.25V11.25H113.75V6.25H125V23.75H113.75V18.75H111.25V23.75C111.25 25.1287 112.371 26.25 113.75 26.25H125C126.379 26.25 127.5 25.1287 127.5 23.75V6.25C127.5 4.87125 126.379 3.75 125 3.75Z" fill="#FFFFDD"/>
</svg>
