<svg width="45" height="46" viewBox="0 0 45 46" fill="none" xmlns="http://www.w3.org/2000/svg">
<path d="M22.5 4.25C17.5468 4.31317 12.8143 6.30889 9.3116 9.8116C5.80889 13.3143 3.81317 18.0468 3.75 23C3.77315 25.8855 4.46198 28.7267 5.76283 31.3024C7.06369 33.8781 8.94148 36.1188 11.25 37.85V38H11.4375C14.6122 40.4328 18.5003 41.7512 22.5 41.7512C26.4997 41.7512 30.3878 40.4328 33.5625 38H33.75V37.85C36.0585 36.1188 37.9363 33.8781 39.2372 31.3024C40.538 28.7267 41.2268 25.8855 41.25 23C41.1868 18.0468 39.1911 13.3143 35.6884 9.8116C32.1857 6.30889 27.4532 4.31317 22.5 4.25ZM15.1312 35.9937C15.405 34.7402 16.099 33.6179 17.0983 32.8131C18.0975 32.0082 19.3419 31.5691 20.625 31.5687H24.375C25.6581 31.5691 26.9025 32.0082 27.9017 32.8131C28.901 33.6179 29.595 34.7402 29.8688 35.9937C27.6354 37.3078 25.0913 38.0007 22.5 38.0007C19.9087 38.0007 17.3646 37.3078 15.1312 35.9937ZM33.0188 33.575C32.3056 31.8705 31.1046 30.4148 29.5667 29.3907C28.0289 28.3665 26.2227 27.8197 24.375 27.8187H20.625C18.7773 27.8197 16.9711 28.3665 15.4333 29.3907C13.8954 30.4148 12.6944 31.8705 11.9812 33.575C10.5762 32.1931 9.45731 30.5479 8.6884 28.7334C7.91949 26.9189 7.51566 24.9706 7.5 23C7.54863 19.0369 9.1446 15.2497 11.9472 12.4472C14.7497 9.6446 18.5369 8.04863 22.5 8C26.4631 8.04863 30.2503 9.6446 33.0528 12.4472C35.8554 15.2497 37.4514 19.0369 37.5 23C37.4843 24.9706 37.0805 26.9189 36.3116 28.7334C35.5427 30.5479 34.4238 32.1931 33.0188 33.575Z" fill="#FFFFDD"/>
<path d="M22.5 11.75C21.5088 11.7269 20.5232 11.9052 19.6028 12.2739C18.6824 12.6426 17.8464 13.1942 17.1453 13.8953C16.4442 14.5964 15.8926 15.4324 15.5239 16.3528C15.1552 17.2732 14.9769 18.2588 15 19.25C14.9769 20.2413 15.1552 21.2269 15.5239 22.1473C15.8926 23.0676 16.4442 23.9037 17.1453 24.6048C17.8464 25.3058 18.6824 25.8574 19.6028 26.2262C20.5232 26.5949 21.5088 26.7731 22.5 26.75C23.4913 26.7731 24.4769 26.5949 25.3973 26.2262C26.3176 25.8574 27.1537 25.3058 27.8548 24.6048C28.5558 23.9037 29.1074 23.0676 29.4762 22.1473C29.8449 21.2269 30.0231 20.2413 30 19.25C30.0231 18.2588 29.8449 17.2732 29.4762 16.3528C29.1074 15.4324 28.5558 14.5964 27.8548 13.8953C27.1537 13.1942 26.3176 12.6426 25.3973 12.2739C24.4769 11.9052 23.4913 11.7269 22.5 11.75ZM22.5 23C22.0012 23.0242 21.5028 22.9437 21.0369 22.7637C20.571 22.5838 20.1479 22.3084 19.7948 21.9553C19.4416 21.6021 19.1663 21.179 18.9863 20.7131C18.8064 20.2473 18.7259 19.7489 18.75 19.25C18.7259 18.7512 18.8064 18.2528 18.9863 17.7869C19.1663 17.321 19.4416 16.8979 19.7948 16.5448C20.1479 16.1916 20.571 15.9163 21.0369 15.7363C21.5028 15.5564 22.0012 15.4759 22.5 15.5C22.9989 15.4759 23.4973 15.5564 23.9631 15.7363C24.429 15.9163 24.8521 16.1916 25.2053 16.5448C25.5584 16.8979 25.8338 17.321 26.0137 17.7869C26.1937 18.2528 26.2742 18.7512 26.25 19.25C26.2742 19.7489 26.1937 20.2473 26.0137 20.7131C25.8338 21.179 25.5584 21.6021 25.2053 21.9553C24.8521 22.3084 24.429 22.5838 23.9631 22.7637C23.4973 22.9437 22.9989 23.0242 22.5 23Z" fill="#FFFFDD"/>
</svg>
