<svg width="23" height="23" viewBox="0 0 23 23" fill="none" xmlns="http://www.w3.org/2000/svg">
<path d="M9.875 17.375C11.539 17.3747 13.1551 16.8176 14.4659 15.7925L18.5872 19.9137L19.9128 18.5881L15.7916 14.4669C16.8172 13.1559 17.3746 11.5395 17.375 9.875C17.375 5.73969 14.0103 2.375 9.875 2.375C5.73969 2.375 2.375 5.73969 2.375 9.875C2.375 14.0103 5.73969 17.375 9.875 17.375ZM9.875 4.25C12.9772 4.25 15.5 6.77281 15.5 9.875C15.5 12.9772 12.9772 15.5 9.875 15.5C6.77281 15.5 4.25 12.9772 4.25 9.875C4.25 6.77281 6.77281 4.25 9.875 4.25Z" fill="#FFFFDD"/>
</svg>
