<svg width="11" height="10" viewBox="0 0 11 10" fill="none" xmlns="http://www.w3.org/2000/svg">
<g clip-path="url(#clip0_400_23624)">
<path d="M4.17725 6.36008L4.7278 6.91064L5.6206 6.01783L6.5134 6.91064L7.06396 6.36008L6.17116 5.46728L7.06396 4.57448L6.5134 4.02393L5.6206 4.91673L4.7278 4.02393L4.17725 4.57448L5.07005 5.46728L4.17725 6.36008Z" fill="black"/>
<path d="M8.3462 1.57364H7.56749V0.794922H6.78877V1.57364H4.45261V0.794922H3.67389V1.57364H2.89517C2.46571 1.57364 2.11646 1.9229 2.11646 2.35236V7.80339C2.11646 8.23285 2.46571 8.58211 2.89517 8.58211H8.3462C8.77567 8.58211 9.12492 8.23285 9.12492 7.80339V2.35236C9.12492 1.9229 8.77567 1.57364 8.3462 1.57364ZM8.34698 7.80339H2.89517V3.13108H8.3462L8.34698 7.80339Z" fill="black"/>
</g>
<defs>
<clipPath id="clip0_400_23624">
<rect width="9.34462" height="9.34462" fill="white" transform="translate(0.948486 0.0161133)"/>
</clipPath>
</defs>
</svg>
