<svg width="10" height="10" viewBox="0 0 10 10" fill="none" xmlns="http://www.w3.org/2000/svg">
<g clip-path="url(#clip0_400_23629)">
<path d="M7.43312 1.57364H6.6544V0.794922H5.87568V1.57364H3.53953V0.794922H2.76081V1.57364H1.98209C1.55262 1.57364 1.20337 1.9229 1.20337 2.35236V7.80339C1.20337 8.23285 1.55262 8.58211 1.98209 8.58211H7.43312C7.86258 8.58211 8.21184 8.23285 8.21184 7.80339V2.35236C8.21184 1.9229 7.86258 1.57364 7.43312 1.57364ZM7.4339 7.80339H1.98209V3.13108H7.43312L7.4339 7.80339Z" fill="black"/>
<path d="M4.31836 6.79655L6.54043 4.57448L5.98987 4.02393L4.31836 5.69545L3.42555 4.80264L2.875 5.3532L4.31836 6.79655Z" fill="black"/>
</g>
<defs>
<clipPath id="clip0_400_23629">
<rect width="9.34462" height="9.34462" fill="white" transform="translate(0.0354004 0.0161133)"/>
</clipPath>
</defs>
</svg>
