<svg width="30" height="30" viewBox="0 0 30 30" fill="none" xmlns="http://www.w3.org/2000/svg">
<path d="M15 2.5C11.6979 2.54211 8.54287 3.87259 6.20773 6.20773C3.87259 8.54287 2.54211 11.6979 2.5 15C2.51544 16.9236 2.97465 18.8178 3.84189 20.5349C4.70913 22.252 5.96099 23.7458 7.5 24.9V25H7.625C9.74148 26.6219 12.3336 27.5008 15 27.5008C17.6664 27.5008 20.2585 26.6219 22.375 25H22.5V24.9C24.039 23.7458 25.2909 22.252 26.1581 20.5349C27.0253 18.8178 27.4846 16.9236 27.5 15C27.4579 11.6979 26.1274 8.54287 23.7923 6.20773C21.4571 3.87259 18.3021 2.54211 15 2.5ZM10.0875 23.6625C10.27 22.8268 10.7327 22.0786 11.3989 21.542C12.065 21.0055 12.8946 20.7128 13.75 20.7125H16.25C17.1054 20.7128 17.935 21.0055 18.6011 21.542C19.2673 22.0786 19.73 22.8268 19.9125 23.6625C18.4236 24.5385 16.7275 25.0004 15 25.0004C13.2725 25.0004 11.5764 24.5385 10.0875 23.6625ZM22.0125 22.05C21.537 20.9137 20.7364 19.9432 19.7112 19.2604C18.6859 18.5777 17.4818 18.2131 16.25 18.2125H13.75C12.5182 18.2131 11.3141 18.5777 10.2888 19.2604C9.2636 19.9432 8.46297 20.9137 7.9875 22.05C7.05083 21.1287 6.30488 20.0319 5.79227 18.8223C5.27966 17.6126 5.01044 16.3138 5 15C5.03242 12.3579 6.0964 9.83316 7.96478 7.96478C9.83316 6.0964 12.3579 5.03242 15 5C17.6421 5.03242 20.1668 6.0964 22.0352 7.96478C23.9036 9.83316 24.9676 12.3579 25 15C24.9896 16.3138 24.7203 17.6126 24.2077 18.8223C23.6951 20.0319 22.9492 21.1287 22.0125 22.05Z" fill="#FFFFDD"/>
<path d="M15.0001 7.49998C14.3393 7.48459 13.6822 7.6034 13.0686 7.84922C12.455 8.09505 11.8977 8.46278 11.4303 8.93017C10.9629 9.39757 10.5952 9.95492 10.3493 10.5685C10.1035 11.1821 9.98471 11.8392 10.0001 12.5C9.98471 13.1608 10.1035 13.8179 10.3493 14.4315C10.5952 15.045 10.9629 15.6024 11.4303 16.0698C11.8977 16.5372 12.455 16.9049 13.0686 17.1507C13.6822 17.3966 14.3393 17.5154 15.0001 17.5C15.6609 17.5154 16.318 17.3966 16.9316 17.1507C17.5452 16.9049 18.1025 16.5372 18.5699 16.0698C19.0373 15.6024 19.405 15.045 19.6509 14.4315C19.8967 13.8179 20.0155 13.1608 20.0001 12.5C20.0155 11.8392 19.8967 11.1821 19.6509 10.5685C19.405 9.95492 19.0373 9.39757 18.5699 8.93017C18.1025 8.46278 17.5452 8.09505 16.9316 7.84922C16.318 7.6034 15.6609 7.48459 15.0001 7.49998ZM15.0001 15C14.6675 15.0161 14.3353 14.9624 14.0247 14.8425C13.7141 14.7225 13.432 14.5389 13.1966 14.3035C12.9612 14.0681 12.7776 13.786 12.6576 13.4754C12.5377 13.1648 12.484 12.8325 12.5001 12.5C12.484 12.1674 12.5377 11.8352 12.6576 11.5246C12.7776 11.214 12.9612 10.9319 13.1966 10.6965C13.432 10.461 13.7141 10.2775 14.0247 10.1575C14.3353 10.0376 14.6675 9.98391 15.0001 9.99998C15.3327 9.98391 15.6649 10.0376 15.9755 10.1575C16.2861 10.2775 16.5682 10.461 16.8036 10.6965C17.039 10.9319 17.2226 11.214 17.3426 11.5246C17.4625 11.8352 17.5162 12.1674 17.5001 12.5C17.5162 12.8325 17.4625 13.1648 17.3426 13.4754C17.2226 13.786 17.039 14.0681 16.8036 14.3035C16.5682 14.5389 16.2861 14.7225 15.9755 14.8425C15.6649 14.9624 15.3327 15.0161 15.0001 15Z" fill="#FFFFDD"/>
</svg>
