<svg width="50" height="50" viewBox="0 0 50 50" fill="none" xmlns="http://www.w3.org/2000/svg">
<path d="M25.0001 4.16675C19.4966 4.23693 14.2382 6.4544 10.3463 10.3463C6.4544 14.2382 4.23693 19.4966 4.16675 25.0001C4.19247 28.2062 4.95783 31.363 6.40323 34.2249C7.84863 37.0868 9.93506 39.5765 12.5001 41.5001V41.6667H12.7084C16.2359 44.3698 20.556 45.8348 25.0001 45.8348C29.4441 45.8348 33.7643 44.3698 37.2917 41.6667H37.5001V41.5001C40.0651 39.5765 42.1515 37.0868 43.5969 34.2249C45.0423 31.363 45.8077 28.2062 45.8334 25.0001C45.7632 19.4966 43.5458 14.2382 39.6539 10.3463C35.762 6.4544 30.5036 4.23693 25.0001 4.16675ZM16.8126 39.4376C17.1167 38.0448 17.8879 36.7978 18.9982 35.9035C20.1085 35.0092 21.4911 34.5214 22.9167 34.5209H27.0834C28.5091 34.5214 29.8917 35.0092 31.002 35.9035C32.1123 36.7978 32.8834 38.0448 33.1876 39.4376C30.7061 40.8976 27.8793 41.6675 25.0001 41.6675C22.1209 41.6675 19.2941 40.8976 16.8126 39.4376ZM36.6876 36.7501C35.8951 34.8562 34.5607 33.2388 32.852 32.1008C31.1433 30.9629 29.1364 30.3553 27.0834 30.3542H22.9167C20.8638 30.3553 18.8569 30.9629 17.1482 32.1008C15.4394 33.2388 14.105 34.8562 13.3126 36.7501C11.7515 35.2146 10.5082 33.3866 9.65386 31.3705C8.79951 29.3544 8.35081 27.1897 8.33341 25.0001C8.38745 20.5966 10.1607 16.3887 13.2747 13.2747C16.3887 10.1607 20.5966 8.38745 25.0001 8.33341C29.4036 8.38745 33.6115 10.1607 36.7254 13.2747C39.8394 16.3887 41.6127 20.5966 41.6667 25.0001C41.6493 27.1897 41.2006 29.3544 40.3463 31.3705C39.492 33.3866 38.2487 35.2146 36.6876 36.7501Z" fill="#016A70"/>
<path d="M25.0001 12.5C23.8987 12.4744 22.8036 12.6724 21.781 13.0821C20.7583 13.4918 19.8294 14.1047 19.0504 14.8837C18.2714 15.6627 17.6585 16.5916 17.2488 17.6142C16.8391 18.6369 16.6411 19.732 16.6668 20.8333C16.6411 21.9347 16.8391 23.0298 17.2488 24.0525C17.6585 25.0751 18.2714 26.004 19.0504 26.783C19.8294 27.562 20.7583 28.1749 21.781 28.5846C22.8036 28.9943 23.8987 29.1923 25.0001 29.1667C26.1015 29.1923 27.1966 28.9943 28.2192 28.5846C29.2419 28.1749 30.1708 27.562 30.9498 26.783C31.7288 26.004 32.3417 25.0751 32.7514 24.0525C33.1611 23.0298 33.3591 21.9347 33.3334 20.8333C33.3591 19.732 33.1611 18.6369 32.7514 17.6142C32.3417 16.5916 31.7288 15.6627 30.9498 14.8837C30.1708 14.1047 29.2419 13.4918 28.2192 13.0821C27.1966 12.6724 26.1015 12.4744 25.0001 12.5ZM25.0001 25C24.4458 25.0268 23.8921 24.9374 23.3744 24.7375C22.8568 24.5375 22.3866 24.2316 21.9943 23.8392C21.6019 23.4468 21.2959 22.9767 21.096 22.459C20.8961 21.9414 20.8066 21.3876 20.8334 20.8333C20.8066 20.2791 20.8961 19.7253 21.096 19.2077C21.2959 18.69 21.6019 18.2199 21.9943 17.8275C22.3866 17.4351 22.8568 17.1291 23.3744 16.9292C23.8921 16.7293 24.4458 16.6399 25.0001 16.6667C25.5544 16.6399 26.1081 16.7293 26.6258 16.9292C27.1434 17.1291 27.6135 17.4351 28.0059 17.8275C28.3983 18.2199 28.7043 18.69 28.9042 19.2077C29.1041 19.7253 29.1936 20.2791 29.1668 20.8333C29.1936 21.3876 29.1041 21.9414 28.9042 22.459C28.7043 22.9767 28.3983 23.4468 28.0059 23.8392C27.6135 24.2316 27.1434 24.5375 26.6258 24.7375C26.1081 24.9374 25.5544 25.0268 25.0001 25Z" fill="#016A70"/>
</svg>
