<svg width="430" height="330" viewBox="0 0 430 330" fill="none" xmlns="http://www.w3.org/2000/svg">
<rect width="430" height="330" fill="#D2DE32"/>
<path d="M15 152.5C8.1075 152.5 2.5 158.108 2.5 165C2.5 171.892 8.1075 177.5 15 177.5C21.8925 177.5 27.5 171.892 27.5 165C27.5 158.108 21.8925 152.5 15 152.5ZM15 175C9.48625 175 5 170.514 5 165C5 159.486 9.48625 155 15 155C20.5137 155 25 159.486 25 165C25 170.514 20.5137 175 15 175Z" fill="black"/>
<path d="M16.6162 157.866L9.48242 165L16.6162 172.134L18.3837 170.366L13.0174 165L18.3837 159.634L16.6162 157.866Z" fill="black"/>
<path d="M415 152.5C408.108 152.5 402.5 158.108 402.5 165C402.5 171.892 408.108 177.5 415 177.5C421.892 177.5 427.5 171.892 427.5 165C427.5 158.108 421.892 152.5 415 152.5ZM415 175C409.486 175 405 170.514 405 165C405 159.486 409.486 155 415 155C420.514 155 425 159.486 425 165C425 170.514 420.514 175 415 175Z" fill="black"/>
<path d="M411.616 159.634L416.982 165L411.616 170.366L413.384 172.134L420.517 165L413.384 157.866L411.616 159.634Z" fill="black"/>
</svg>
