<svg width="10" height="10" viewBox="0 0 10 10" fill="none" xmlns="http://www.w3.org/2000/svg">
<path d="M4.16668 7.50004C4.90625 7.49989 5.62451 7.2523 6.20709 6.79671L8.03876 8.62837L8.62793 8.03921L6.79626 6.20754C7.25209 5.6249 7.49983 4.90647 7.50001 4.16671C7.50001 2.32879 6.00459 0.833374 4.16668 0.833374C2.32876 0.833374 0.833344 2.32879 0.833344 4.16671C0.833344 6.00462 2.32876 7.50004 4.16668 7.50004ZM4.16668 1.66671C5.54543 1.66671 6.66668 2.78796 6.66668 4.16671C6.66668 5.54546 5.54543 6.66671 4.16668 6.66671C2.78793 6.66671 1.66668 5.54546 1.66668 4.16671C1.66668 2.78796 2.78793 1.66671 4.16668 1.66671Z" fill="black"/>
</svg>
