<svg width="30" height="30" viewBox="0 0 30 30" fill="none" xmlns="http://www.w3.org/2000/svg">
<path d="M20 2.5H10C5.86375 2.5 2.5 5.86375 2.5 10V25C2.5 25.3315 2.6317 25.6495 2.86612 25.8839C3.10054 26.1183 3.41848 26.25 3.75 26.25H20C24.1363 26.25 27.5 22.8863 27.5 18.75V10C27.5 5.86375 24.1363 2.5 20 2.5ZM25 18.75C25 21.5075 22.7575 23.75 20 23.75H5V10C5 7.2425 7.2425 5 10 5H20C22.7575 5 25 7.2425 25 10V18.75Z" fill="#FFFFDD"/>
<path d="M11.875 16.25C12.9105 16.25 13.75 15.4105 13.75 14.375C13.75 13.3395 12.9105 12.5 11.875 12.5C10.8395 12.5 10 13.3395 10 14.375C10 15.4105 10.8395 16.25 11.875 16.25Z" fill="#FFFFDD"/>
<path d="M18.125 16.25C19.1605 16.25 20 15.4105 20 14.375C20 13.3395 19.1605 12.5 18.125 12.5C17.0895 12.5 16.25 13.3395 16.25 14.375C16.25 15.4105 17.0895 16.25 18.125 16.25Z" fill="#FFFFDD"/>
</svg>
