<svg width="10" height="10" viewBox="0 0 10 10" fill="none" xmlns="http://www.w3.org/2000/svg">
<path d="M4.16659 7.49998C4.90616 7.49983 5.62442 7.25224 6.207 6.79665L8.03867 8.62831L8.62784 8.03915L6.79617 6.20748C7.252 5.62484 7.49974 4.90641 7.49992 4.16665C7.49992 2.32873 6.0045 0.833313 4.16659 0.833313C2.32867 0.833313 0.833252 2.32873 0.833252 4.16665C0.833252 6.00456 2.32867 7.49998 4.16659 7.49998ZM4.16659 1.66665C5.54534 1.66665 6.66659 2.7879 6.66659 4.16665C6.66659 5.5454 5.54534 6.66665 4.16659 6.66665C2.78784 6.66665 1.66659 5.5454 1.66659 4.16665C1.66659 2.7879 2.78784 1.66665 4.16659 1.66665Z" fill="black"/>
</svg>
