<svg width="15" height="16" viewBox="0 0 15 16" fill="none" xmlns="http://www.w3.org/2000/svg">
<g clip-path="url(#clip0_399_15741)">
<path d="M3.2846 2.02163L2.3404 0.997587C0.133928 3.35792 0.133928 5.0685 0.133928 7.27884H0.803571L1.47321 7.2334C1.47321 5.12187 1.47321 3.95864 3.2846 2.02163ZM12.6589 0.997587L11.7161 2.02163C13.5268 3.95864 13.5268 5.12187 13.5268 7.27884L14.8661 7.2334C14.8661 5.0685 14.8661 3.35792 12.6589 0.997587ZM7.5 15.2115C7.91471 15.2121 8.31928 15.0735 8.65747 14.815C8.99566 14.5565 9.25067 14.191 9.38705 13.7692H5.61295C5.74933 14.191 6.00434 14.5565 6.34253 14.815C6.68072 15.0735 7.08529 15.2121 7.5 15.2115ZM12.1875 9.86489V6.55768C12.1875 4.23773 10.7243 2.2834 8.74219 1.69566C8.54598 1.16345 8.06652 0.788452 7.5 0.788452C6.93348 0.788452 6.45402 1.16345 6.25781 1.69566C4.275 2.2834 2.8125 4.23773 2.8125 6.55768V9.86489L1.66942 11.0959C1.60711 11.1628 1.5577 11.2422 1.52403 11.3297C1.49036 11.4172 1.47309 11.511 1.47321 11.6058V12.3269C1.47321 12.5182 1.54377 12.7016 1.66935 12.8368C1.79493 12.9721 1.96526 13.0481 2.14286 13.0481H12.8571C13.0347 13.0481 13.2051 12.9721 13.3307 12.8368C13.4562 12.7016 13.5268 12.5182 13.5268 12.3269V11.6058C13.5269 11.511 13.5096 11.4172 13.476 11.3297C13.4423 11.2422 13.3929 11.1628 13.3306 11.0959L12.1875 9.86489Z" fill="black"/>
</g>
<defs>
<clipPath id="clip0_399_15741">
<rect width="15" height="15" fill="white" transform="translate(0 0.5)"/>
</clipPath>
</defs>
</svg>
