<svg width="15" height="16" viewBox="0 0 15 16" fill="none" xmlns="http://www.w3.org/2000/svg">
<g clip-path="url(#clip0_399_15745)">
<path d="M7.5 15.2115C7.94661 15.2121 8.3823 15.0735 8.74651 14.815C9.11071 14.5565 9.38534 14.191 9.53221 13.7692H5.46779C5.61466 14.191 5.88929 14.5565 6.25349 14.815C6.6177 15.0735 7.05339 15.2121 7.5 15.2115ZM13.9904 12.3269V10.8846C13.9905 10.7899 13.9719 10.6961 13.9357 10.6086C13.8994 10.5211 13.8462 10.4416 13.7791 10.3748L12.5481 9.14374V6.55768C12.5481 4.23773 10.9724 2.2834 8.83774 1.69566C8.62644 1.16345 8.1101 0.788452 7.5 0.788452C6.8899 0.788452 6.37356 1.16345 6.16226 1.69566C5.20817 1.95816 4.38606 2.50913 3.74928 3.22956L1.51947 0.99975L0.49976 2.01946L13.4805 15.0002L14.5002 13.9805L13.518 12.9983C13.6561 12.9483 13.7755 12.8571 13.86 12.737C13.9445 12.6169 13.99 12.4738 13.9904 12.3269ZM7.5 2.95191C9.48822 2.95191 11.1058 4.56946 11.1058 6.55768V9.4423C11.1058 9.63412 11.1815 9.8173 11.3171 9.95215L12.5481 11.1832V11.6058H12.1255L4.76466 4.24494C5.42308 3.46033 6.39736 2.95191 7.5 2.95191ZM3.68293 9.95215C3.75003 9.8853 3.80324 9.80583 3.83951 9.71833C3.87577 9.63083 3.89437 9.53702 3.89423 9.4423V7.3661L2.50096 5.97283C2.47861 6.1661 2.45192 6.35864 2.45192 6.55768V9.14374L1.22091 10.3748C1.15382 10.4416 1.1006 10.5211 1.06434 10.6086C1.02808 10.6961 1.00948 10.7899 1.00962 10.8846V12.3269C1.00962 12.5182 1.08559 12.7016 1.22084 12.8368C1.35608 12.9721 1.53951 13.0481 1.73077 13.0481H9.5762L8.13389 11.6058H2.45192V11.1832L3.68293 9.95215Z" fill="black"/>
</g>
<defs>
<clipPath id="clip0_399_15745">
<rect width="15" height="15" fill="white" transform="translate(0 0.5)"/>
</clipPath>
</defs>
</svg>
