<svg width="10" height="10" viewBox="0 0 10 10" fill="none" xmlns="http://www.w3.org/2000/svg">
<path d="M4.16671 7.50004C4.90628 7.49989 5.62454 7.2523 6.20712 6.79671L8.03879 8.62837L8.62796 8.03921L6.79629 6.20754C7.25212 5.6249 7.49986 4.90647 7.50004 4.16671C7.50004 2.32879 6.00462 0.833374 4.16671 0.833374C2.32879 0.833374 0.833374 2.32879 0.833374 4.16671C0.833374 6.00462 2.32879 7.50004 4.16671 7.50004ZM4.16671 1.66671C5.54546 1.66671 6.66671 2.78796 6.66671 4.16671C6.66671 5.54546 5.54546 6.66671 4.16671 6.66671C2.78796 6.66671 1.66671 5.54546 1.66671 4.16671C1.66671 2.78796 2.78796 1.66671 4.16671 1.66671Z" fill="black"/>
</svg>
