<svg width="10" height="10" viewBox="0 0 10 10" fill="none" xmlns="http://www.w3.org/2000/svg">
<path d="M4.16659 7.49992C4.90616 7.49977 5.62442 7.25218 6.207 6.79659L8.03867 8.62825L8.62784 8.03909L6.79617 6.20742C7.252 5.62478 7.49974 4.90635 7.49992 4.16659C7.49992 2.32867 6.0045 0.833252 4.16659 0.833252C2.32867 0.833252 0.833252 2.32867 0.833252 4.16659C0.833252 6.0045 2.32867 7.49992 4.16659 7.49992ZM4.16659 1.66659C5.54534 1.66659 6.66659 2.78784 6.66659 4.16659C6.66659 5.54534 5.54534 6.66659 4.16659 6.66659C2.78784 6.66659 1.66659 5.54534 1.66659 4.16659C1.66659 2.78784 2.78784 1.66659 4.16659 1.66659Z" fill="black"/>
</svg>
