<svg width="15" height="14" viewBox="0 0 15 14" fill="none" xmlns="http://www.w3.org/2000/svg">
<path d="M4.375 6.27502H5.625V7.52502H4.375V6.27502ZM4.375 8.77502H5.625V10.025H4.375V8.77502ZM6.875 6.27502H8.125V7.52502H6.875V6.27502ZM6.875 8.77502H8.125V10.025H6.875V8.77502ZM9.375 6.27502H10.625V7.52502H9.375V6.27502ZM9.375 8.77502H10.625V10.025H9.375V8.77502Z" fill="black"/>
<path d="M3.125 13.15H11.875C12.5644 13.15 13.125 12.5894 13.125 11.9V3.15002C13.125 2.46065 12.5644 1.90002 11.875 1.90002H10.625V0.650024H9.375V1.90002H5.625V0.650024H4.375V1.90002H3.125C2.43562 1.90002 1.875 2.46065 1.875 3.15002V11.9C1.875 12.5894 2.43562 13.15 3.125 13.15ZM11.875 4.40002L11.8756 11.9H3.125V4.40002H11.875Z" fill="black"/>
</svg>
