<svg width="15" height="16" viewBox="0 0 15 16" fill="none" xmlns="http://www.w3.org/2000/svg">
<path d="M11.875 3.30005H10.625V2.05005H9.375V3.30005H5.625V2.05005H4.375V3.30005H3.125C2.43562 3.30005 1.875 3.86067 1.875 4.55005V13.3C1.875 13.9894 2.43562 14.55 3.125 14.55H11.875C12.5644 14.55 13.125 13.9894 13.125 13.3V4.55005C13.125 3.86067 12.5644 3.30005 11.875 3.30005ZM11.8763 13.3H3.125V5.80005H11.875L11.8763 13.3Z" fill="black"/>
<path d="M6.87498 11.6838L10.4419 8.1169L9.55811 7.23315L6.87498 9.91628L5.44186 8.48315L4.55811 9.3669L6.87498 11.6838Z" fill="black"/>
</svg>
