<svg width="15" height="16" viewBox="0 0 15 16" fill="none" xmlns="http://www.w3.org/2000/svg">
<path d="M5.18311 11.0581L6.06686 11.9419L7.49998 10.5087L8.93311 11.9419L9.81686 11.0581L8.38373 9.62498L9.81686 8.19186L8.93311 7.30811L7.49998 8.74123L6.06686 7.30811L5.18311 8.19186L6.61623 9.62498L5.18311 11.0581Z" fill="black"/>
<path d="M11.875 3.375H10.625V2.125H9.375V3.375H5.625V2.125H4.375V3.375H3.125C2.43562 3.375 1.875 3.93562 1.875 4.625V13.375C1.875 14.0644 2.43562 14.625 3.125 14.625H11.875C12.5644 14.625 13.125 14.0644 13.125 13.375V4.625C13.125 3.93562 12.5644 3.375 11.875 3.375ZM11.8763 13.375H3.125V5.875H11.875L11.8763 13.375Z" fill="black"/>
</svg>
