<svg width="15" height="16" viewBox="0 0 15 16" fill="none" xmlns="http://www.w3.org/2000/svg">
<path d="M11.875 3.125H10.625V1.875H9.375V3.125H5.625V1.875H4.375V3.125H3.125C2.43562 3.125 1.875 3.68562 1.875 4.375V13.125C1.875 13.8144 2.43562 14.375 3.125 14.375H11.875C12.5644 14.375 13.125 13.8144 13.125 13.125V4.375C13.125 3.68562 12.5644 3.125 11.875 3.125ZM11.8763 13.125H3.125V5.625H11.875L11.8763 13.125Z" fill="black"/>
<path d="M6.87498 11.5087L10.4419 7.94186L9.55811 7.05811L6.87498 9.74123L5.44186 8.30811L4.55811 9.19186L6.87498 11.5087Z" fill="black"/>
</svg>
