<svg width="15" height="16" viewBox="0 0 15 16" fill="none" xmlns="http://www.w3.org/2000/svg">
<path d="M10 1.75H5C2.93187 1.75 1.25 3.43187 1.25 5.5V13C1.25 13.1658 1.31585 13.3247 1.43306 13.4419C1.55027 13.5592 1.70924 13.625 1.875 13.625H10C12.0681 13.625 13.75 11.9431 13.75 9.875V5.5C13.75 3.43187 12.0681 1.75 10 1.75ZM12.5 9.875C12.5 11.2537 11.3787 12.375 10 12.375H2.5V5.5C2.5 4.12125 3.62125 3 5 3H10C11.3787 3 12.5 4.12125 12.5 5.5V9.875Z" fill="black"/>
<path d="M5.9375 8.625C6.45527 8.625 6.875 8.20527 6.875 7.6875C6.875 7.16973 6.45527 6.75 5.9375 6.75C5.41973 6.75 5 7.16973 5 7.6875C5 8.20527 5.41973 8.625 5.9375 8.625Z" fill="black"/>
<path d="M9.0625 8.625C9.58027 8.625 10 8.20527 10 7.6875C10 7.16973 9.58027 6.75 9.0625 6.75C8.54473 6.75 8.125 7.16973 8.125 7.6875C8.125 8.20527 8.54473 8.625 9.0625 8.625Z" fill="black"/>
</svg>
