<svg width="45" height="46" viewBox="0 0 45 46" fill="none" xmlns="http://www.w3.org/2000/svg">
<path d="M30 4.25H15C8.79562 4.25 3.75 9.29562 3.75 15.5V38C3.75 38.4973 3.94754 38.9742 4.29917 39.3258C4.65081 39.6775 5.12772 39.875 5.625 39.875H30C36.2044 39.875 41.25 34.8294 41.25 28.625V15.5C41.25 9.29562 36.2044 4.25 30 4.25ZM37.5 28.625C37.5 32.7613 34.1363 36.125 30 36.125H7.5V15.5C7.5 11.3637 10.8637 8 15 8H30C34.1363 8 37.5 11.3637 37.5 15.5V28.625Z" fill="#FFFFDD"/>
<path d="M17.8125 24.875C19.3658 24.875 20.625 23.6158 20.625 22.0625C20.625 20.5092 19.3658 19.25 17.8125 19.25C16.2592 19.25 15 20.5092 15 22.0625C15 23.6158 16.2592 24.875 17.8125 24.875Z" fill="#FFFFDD"/>
<path d="M27.1875 24.875C28.7408 24.875 30 23.6158 30 22.0625C30 20.5092 28.7408 19.25 27.1875 19.25C25.6342 19.25 24.375 20.5092 24.375 22.0625C24.375 23.6158 25.6342 24.875 27.1875 24.875Z" fill="#FFFFDD"/>
</svg>
