<svg width="15" height="16" viewBox="0 0 15 16" fill="none" xmlns="http://www.w3.org/2000/svg">
<path d="M11.875 3.10004H10V1.85004H8.75V3.10004H6.25V1.85004H5V3.10004H3.125C2.43562 3.10004 1.875 3.66066 1.875 4.35004V13.1C1.875 13.7894 2.43562 14.35 3.125 14.35H11.875C12.5644 14.35 13.125 13.7894 13.125 13.1V4.35004C13.125 3.66066 12.5644 3.10004 11.875 3.10004ZM3.125 13.1V4.97504H11.875V4.35004L11.8763 13.1H3.125Z" fill="black"/>
<path d="M9.76755 8.2144L8.64255 7.09003L9.4988 6.23315L10.6238 7.35753L9.76755 8.2144ZM5.00317 10.7257V11.85H6.12755L9.23755 8.74378L8.11317 7.6194L5.00317 10.7257Z" fill="black"/>
</svg>
