<svg width="16" height="16" viewBox="0 0 16 16" fill="none" xmlns="http://www.w3.org/2000/svg">
<path d="M6.75 11.75C7.85936 11.7498 8.93675 11.3784 9.81063 10.695L12.5581 13.4425L13.4419 12.5588L10.6944 9.81128C11.3781 8.93732 11.7497 7.85968 11.75 6.75003C11.75 3.99316 9.50687 1.75003 6.75 1.75003C3.99313 1.75003 1.75 3.99316 1.75 6.75003C1.75 9.50691 3.99313 11.75 6.75 11.75ZM6.75 3.00003C8.81813 3.00003 10.5 4.68191 10.5 6.75003C10.5 8.81816 8.81813 10.5 6.75 10.5C4.68187 10.5 3 8.81816 3 6.75003C3 4.68191 4.68187 3.00003 6.75 3.00003Z" fill="black"/>
</svg>
