<svg width="16" height="16" viewBox="0 0 16 16" fill="none" xmlns="http://www.w3.org/2000/svg">
<path d="M6.75 11.7499C7.85936 11.7497 8.93675 11.3783 9.81063 10.6949L12.5581 13.4424L13.4419 12.5587L10.6944 9.81119C11.3781 8.93723 11.7497 7.85959 11.75 6.74994C11.75 3.99306 9.50687 1.74994 6.75 1.74994C3.99313 1.74994 1.75 3.99306 1.75 6.74994C1.75 9.50681 3.99313 11.7499 6.75 11.7499ZM6.75 2.99994C8.81813 2.99994 10.5 4.68181 10.5 6.74994C10.5 8.81806 8.81813 10.4999 6.75 10.4999C4.68187 10.4999 3 8.81806 3 6.74994C3 4.68181 4.68187 2.99994 6.75 2.99994Z" fill="black"/>
</svg>
