<svg width="30" height="30" viewBox="0 0 30 30" fill="none" xmlns="http://www.w3.org/2000/svg">
<path d="M23.75 16.9825V12.5C23.75 8.47875 21.0188 5.09125 17.3188 4.0725C16.9525 3.15 16.0575 2.5 15 2.5C13.9425 2.5 13.0475 3.15 12.6813 4.0725C8.98125 5.0925 6.25 8.47875 6.25 12.5V16.9825L4.11625 19.1163C3.99995 19.2321 3.90771 19.3699 3.84486 19.5215C3.782 19.6732 3.74976 19.8358 3.75 20V22.5C3.75 22.8315 3.8817 23.1495 4.11612 23.3839C4.35054 23.6183 4.66848 23.75 5 23.75H25C25.3315 23.75 25.6495 23.6183 25.8839 23.3839C26.1183 23.1495 26.25 22.8315 26.25 22.5V20C26.2502 19.8358 26.218 19.6732 26.1551 19.5215C26.0923 19.3699 26.0001 19.2321 25.8838 19.1163L23.75 16.9825ZM23.75 21.25H6.25V20.5175L8.38375 18.3837C8.50005 18.2679 8.59229 18.1301 8.65515 17.9785C8.718 17.8268 8.75024 17.6642 8.75 17.5V12.5C8.75 9.05375 11.5538 6.25 15 6.25C18.4463 6.25 21.25 9.05375 21.25 12.5V17.5C21.25 17.8325 21.3813 18.15 21.6163 18.3837L23.75 20.5175V21.25ZM15 27.5C15.7741 27.501 16.5293 27.2607 17.1606 26.8127C17.7919 26.3647 18.2679 25.7311 18.5225 25H11.4775C11.7321 25.7311 12.2081 26.3647 12.8394 26.8127C13.4707 27.2607 14.2259 27.501 15 27.5Z" fill="#FFFFDD"/>
</svg>
