<svg width="30" height="30" viewBox="0 0 30 30" fill="none" xmlns="http://www.w3.org/2000/svg">
<path d="M15 29.4231C15.8932 29.4242 16.7646 29.147 17.493 28.63C18.2214 28.113 18.7707 27.382 19.0644 26.5384H10.9356C11.2293 27.382 11.7786 28.113 12.507 28.63C13.2354 29.147 14.1068 29.4242 15 29.4231ZM27.9808 23.6538V20.7692C27.981 20.5798 27.9438 20.3922 27.8713 20.2171C27.7988 20.0421 27.6924 19.8832 27.5582 19.7495L25.0961 17.2875V12.1154C25.0961 7.47546 21.9447 3.56681 17.6755 2.39133C17.2529 1.3269 16.2202 0.576904 15 0.576904C13.7798 0.576904 12.7471 1.3269 12.3245 2.39133C10.4163 2.91633 8.77211 4.01825 7.49855 5.45912L3.03893 0.9995L0.999512 3.03892L26.9611 29.0005L29.0005 26.961L27.0361 24.9966C27.3122 24.8967 27.5509 24.7142 27.7199 24.474C27.8889 24.2338 27.98 23.9475 27.9808 23.6538ZM15 4.90383C18.9764 4.90383 22.2115 8.13892 22.2115 12.1154V17.8846C22.2115 18.2682 22.363 18.6346 22.6341 18.9043L25.0961 21.3663V22.2115H24.251L9.52932 7.48988C10.8461 5.92065 12.7947 4.90383 15 4.90383ZM7.36586 18.9043C7.50005 18.7706 7.60648 18.6117 7.67901 18.4367C7.75153 18.2617 7.78873 18.074 7.78845 17.8846V13.7322L5.00192 10.9457C4.9572 11.3322 4.90384 11.7173 4.90384 12.1154V17.2875L2.44182 19.7495C2.30762 19.8832 2.2012 20.0421 2.12867 20.2171C2.05615 20.3922 2.01895 20.5798 2.01922 20.7692V23.6538C2.01922 24.0363 2.17118 24.4032 2.44167 24.6737C2.71215 24.9442 3.07901 25.0961 3.46153 25.0961H19.1524L16.2678 22.2115H4.90384V21.3663L7.36586 18.9043Z" fill="black"/>
</svg>
